<mxfile host="app.diagrams.net" modified="2022-12-27T06:02:26.562Z" agent="5.0 (Windows NT 10.0; Win64; x64) AppleWebKit/537.36 (KHTML, like Gecko) Chrome/108.0.0.0 Safari/537.36" etag="CRcpgJRfFhFHy4aIGlWv" version="20.5.1" type="github">
  <diagram id="j8C2encwWsnjcRP_ib8g" name="Page-1">
    <mxGraphModel dx="780" dy="1104" grid="1" gridSize="10" guides="1" tooltips="1" connect="1" arrows="1" fold="1" page="1" pageScale="1" pageWidth="850" pageHeight="1100" math="0" shadow="0">
      <root>
        <mxCell id="0" />
        <mxCell id="1" parent="0" />
        <mxCell id="_GXQow-4lzv82Tn2p1uT-1" value="Program Start()" style="rounded=0;whiteSpace=wrap;html=1;" vertex="1" parent="1">
          <mxGeometry x="365" y="20" width="120" height="60" as="geometry" />
        </mxCell>
        <mxCell id="_GXQow-4lzv82Tn2p1uT-4" value="" style="edgeStyle=orthogonalEdgeStyle;rounded=0;orthogonalLoop=1;jettySize=auto;html=1;" edge="1" parent="1" source="_GXQow-4lzv82Tn2p1uT-2" target="_GXQow-4lzv82Tn2p1uT-3">
          <mxGeometry relative="1" as="geometry" />
        </mxCell>
        <mxCell id="_GXQow-4lzv82Tn2p1uT-2" value="File Path provided with initialization?" style="rhombus;whiteSpace=wrap;html=1;" vertex="1" parent="1">
          <mxGeometry x="348" y="110" width="155" height="140" as="geometry" />
        </mxCell>
        <mxCell id="_GXQow-4lzv82Tn2p1uT-3" value="Prompt User for file path" style="rounded=0;whiteSpace=wrap;html=1;" vertex="1" parent="1">
          <mxGeometry x="120" y="150" width="120" height="60" as="geometry" />
        </mxCell>
      </root>
    </mxGraphModel>
  </diagram>
</mxfile>
